<?xml version="1.0" standalone="no"?><svg xmlns="http://www.w3.org/2000/svg" viewBox="0 0 1440 320"><path fill="#f05f40" fill-opacity="1" d="M0,224L17.1,229.3C34.3,235,69,245,103,218.7C137.1,192,171,128,206,128C240,128,274,192,309,192C342.9,192,377,128,411,90.7C445.7,53,480,43,514,42.7C548.6,43,583,53,617,74.7C651.4,96,686,128,720,122.7C754.3,117,789,75,823,74.7C857.1,75,891,117,926,138.7C960,160,994,160,1029,176C1062.9,192,1097,224,1131,213.3C1165.7,203,1200,149,1234,160C1268.6,171,1303,245,1337,277.3C1371.4,309,1406,299,1423,293.3L1440,288L1440,0L1422.9,0C1405.7,0,1371,0,1337,0C1302.9,0,1269,0,1234,0C1200,0,1166,0,1131,0C1097.1,0,1063,0,1029,0C994.3,0,960,0,926,0C891.4,0,857,0,823,0C788.6,0,754,0,720,0C685.7,0,651,0,617,0C582.9,0,549,0,514,0C480,0,446,0,411,0C377.1,0,343,0,309,0C274.3,0,240,0,206,0C171.4,0,137,0,103,0C68.6,0,34,0,17,0L0,0Z"></path></svg>